<?xml version="1.0" encoding="UTF-8"?> <svg xmlns="http://www.w3.org/2000/svg" viewBox="0 0 100 100" fill-rule="evenodd"><path d="m99.11 49.09-15.77-8.76 11.15-9.06a1.5 1.5 0 0 0-.19-2.46l-30-17.4a1.5 1.5 0 0 0-1.85.28L51 24.08 38.54 11.64a1.5 1.5 0 0 0-1.81-.24l-30 17.4a1.5 1.5 0 0 0-.17 2.48l11.8 9.27-14.5 8.56a1.5 1.5 0 0 0 .09 2.63c6.75 3.4 12 6 16.05 8v14.83a1.5 1.5 0 0 0 .76 1.3l29 16.46a1.47 1.47 0 0 0 .24.1h.11a1.5 1.5 0 0 0 .39.05 1.5 1.5 0 0 0 .38 0h.13a1.48 1.48 0 0 0 .22-.09l30-16.45a1.5 1.5 0 0 0 .77-1.36V60.5a1.49 1.49 0 0 0 0-.24c4.21-2.07 9.76-4.82 17.08-8.51a1.5 1.5 0 0 0 .05-2.65Zm-48.37 4.48c-3.1-1.27-16.5-7.89-26.3-12.81L51 27.9l26.3 12.72c-9.85 4.96-23.5 11.71-26.56 12.95Zm13.12-39 27 15.71-10.46 8.5-27-13ZM10.19 30.29l27.05-15.71 11.22 11.23L21.24 39Zm10.92 12.15c15.71 7.91 23.06 11.44 26.57 13L34.4 63.27c-3-1.18-16.73-8-26.65-13ZM23 61.22c10.62 5.17 11.29 5.18 11.58 5.18a1.5 1.5 0 0 0 .76-.21l13.65-8v30.26L23 73.69Zm56 12.47L52 88.5v-31l15.69 8.72a1.51 1.51 0 0 0 .73.19c.29 0 .91 0 10.58-4.69ZM68.58 63.28l-14.38-8c3.66-1.66 11.11-5.25 26.49-13l14.48 8c-9.93 5.04-23.68 11.84-26.59 13Z" fill="#1b552b"></path></svg> 