<?xml version="1.0" encoding="UTF-8"?> <svg xmlns="http://www.w3.org/2000/svg" viewBox="0 0 100 100" fill-rule="evenodd"><path d="M69.41 26.18a1.5 1.5 0 0 0-2.12 0l-7.42 7.42a18.11 18.11 0 0 1-5.7 3.86l-16.09 6.89a13.14 13.14 0 0 0-4.08 2.8L9.53 71.57a1.47 1.47 0 0 0-.35.6c-.63 1-.82 2.83.78 5.92a33.07 33.07 0 0 0 5.87 7.65c3.81 3.81 8.59 7.1 11.8 7.1a3.12 3.12 0 0 0 2.3-.87v-.05L54.4 67.5a13.12 13.12 0 0 0 2.74-4l7.11-16.07A18.14 18.14 0 0 1 68 41.92l7.5-7.5a1.5 1.5 0 0 0 0-2.12ZM11.72 73.76a1.47 1.47 0 0 0 .26-.4l21.63-21.63a13.91 13.91 0 0 0 .79 1.8 33.06 33.06 0 0 0 5.87 7.65c3 3 6.58 5.65 9.53 6.67l-22 22c-.78.3-4.72-1.08-9.86-6.22s-6.53-9.2-6.22-9.87Zm54.18-34a21.14 21.14 0 0 0-4.4 6.42l-7.11 16.11a10.14 10.14 0 0 1-1.88 2.83 1.41 1.41 0 0 0-.22.14c-.71.34-4.69-1-9.9-6.21s-6.55-9.19-6.24-9.86a10.15 10.15 0 0 1 3.1-2.08l16.08-6.89a21.1 21.1 0 0 0 6.67-4.5l6.36-6.36 4 4ZM86.55 15a1.5 1.5 0 0 0-2.12 0L77 22.47a1.5 1.5 0 1 0 2.12 2.12l7.42-7.42a1.5 1.5 0 0 0 .01-2.17ZM71.5 21a1.5 1.5 0 0 0 1.5-1.5v-10a1.5 1.5 0 0 0-3 0v10a1.5 1.5 0 0 0 1.5 1.5Zm21 7h-10a1.5 1.5 0 0 0 0 3h10a1.5 1.5 0 0 0 0-3Z" fill="#1b552b"></path></svg> 