<?xml version="1.0" encoding="UTF-8"?> <svg xmlns="http://www.w3.org/2000/svg" viewBox="0 0 100 100" fill-rule="evenodd"><path d="M90.06 76.28 42 28.25q3.4-2.78 7.88-6a1.5 1.5 0 0 0 .17-2.28l-7.08-7a1.5 1.5 0 0 0-1.76-.26 63.17 63.17 0 0 0-9.15 5.9l-6.55-6.63a1.54 1.54 0 0 0-2.13 0l-7.45 7.54a1.5 1.5 0 0 0 0 2.11L22.29 28A62.76 62.76 0 0 0 7.5 65.92a1.5 1.5 0 0 0 2.74.92c.14-.2 11.8-17.53 21.82-29l48.22 48.22a1.5 1.5 0 0 0 2.12 0l7.66-7.66a1.5 1.5 0 0 0 0-2.12Zm-71-55.75 5.34-5.4 5.28 5.34q-1.64 1.4-3.16 2.91c-.79.78-1.55 1.58-2.29 2.38Zm9.57 5a58.77 58.77 0 0 1 13-9.67l5 5a115.9 115.9 0 0 0-12.31 10.2C26.4 38.9 16.21 53 11 60.37a59.7 59.7 0 0 1 17.67-34.86Zm52.71 57.35L34.08 35.64c.8-.87 1.59-1.69 2.36-2.45.94-.93 2-1.94 3.27-3l47.17 47.15ZM68.5 32.84a1.5 1.5 0 0 0-3 0c0 3.88 3.25 7.11 7.5 7.73V43a1.5 1.5 0 0 0 3 0v-2.43c4.25-.63 7.5-3.85 7.5-7.73s-3.25-7.1-7.5-7.73v-9.64c2.58.54 4.5 2.43 4.5 4.69a1.5 1.5 0 0 0 3 0c0-3.88-3.25-7.11-7.5-7.73V10a1.5 1.5 0 0 0-3 0v2.43c-4.25.63-7.5 3.85-7.5 7.73s3.25 7.1 7.5 7.72v9.65c-2.58-.53-4.5-2.43-4.5-4.69Zm12 0c0 2.26-1.92 4.15-4.5 4.69v-9.37c2.58.54 4.5 2.43 4.5 4.68Zm-12-12.69c0-2.25 1.92-4.15 4.5-4.69v9.37c-2.58-.53-4.5-2.42-4.5-4.67ZM14.06 77.94a1.5 1.5 0 0 0-2.12 2.12l9 9a1.5 1.5 0 1 0 2.12-2.12Z" fill="#1b552b"></path><path d="M35 69.5H14a1.5 1.5 0 0 0 0 3h21a1.5 1.5 0 0 0 0-3Z" fill="#1b552b"></path></svg> 