<?xml version="1.0" encoding="UTF-8"?> <svg xmlns="http://www.w3.org/2000/svg" viewBox="0 0 100 100" fill-rule="evenodd"><path d="M93.5 47a43 43 0 1 0-70 33.46v11A1.5 1.5 0 0 0 25 93h51a1.5 1.5 0 0 0 1.5-1.5v-11a42.8 42.8 0 0 0 16-33.5Zm-19 43h-48v-9h48Zm1.26-12H25.24a40 40 0 1 1 50.53 0Z" fill="#1b552b"></path><path d="M85 53.22A39.87 39.87 0 0 0 69 50c-8.5 0-14.53 3.21-20.35 6.32-3.8 2-7.47 4-11.7 5V50h10.49a1.5 1.5 0 0 0 1.36-2.14L36.86 22.61a1.5 1.5 0 0 0-2.71 0L22.2 47.86A1.5 1.5 0 0 0 23.56 50H34v11.83A26.45 26.45 0 0 1 18.71 59a1.5 1.5 0 0 0-1.41 2.65A28.94 28.94 0 0 0 31 65c7.75 0 13.5-3.07 19.06-6 5.8-3.1 11.23-6 18.94-6a36.92 36.92 0 0 1 14.76 3A1.5 1.5 0 0 0 85 53.22ZM35.5 26.76 45.08 47H25.92Zm32.06 8.716a2.5 2.5 0 1 0 .05 5 2.5 2.5 0 1 0-.05-5zm8.958-4.089a2.5 2.5 0 1 0 .05 5 2.5 2.5 0 1 0-.05-5zM54.392 18.608a2.5 2.5 0 1 0 .05 5 2.5 2.5 0 1 0-.05-5z" fill="#1b552b"></path></svg> 