<?xml version="1.0" encoding="UTF-8"?> <svg xmlns="http://www.w3.org/2000/svg" viewBox="0 0 100 100" fill-rule="evenodd"><path d="M96.079 31.468c-13.438-9.867-29.38-15.082-46.102-15.082-16.719 0-32.659 5.214-46.097 15.078a1.5 1.5 0 0 0-.402 1.975l19.949 33.604a1.499 1.499 0 0 0 2.293.35 36.28 36.28 0 0 1 7.164-5.021c1.402 3.435 1.351 7.425-.191 10.804-1.464 3.209-2.237 6.831-2.237 10.478v5.014a1.5 1.5 0 1 0 3 0v-5.014c0-3.22.68-6.412 1.967-9.231 1.908-4.18 1.949-9.13.165-13.36a36.203 36.203 0 0 1 12.057-2.89 23.677 23.677 0 0 0 1.328 3.654c1.639 3.55 1.648 7.793.024 11.35-1.464 3.209-2.237 6.831-2.237 10.478v5.014a1.5 1.5 0 1 0 3 0v-5.014c0-3.22.68-6.412 1.967-9.231 1.981-4.342 1.971-9.521-.029-13.854a20.46 20.46 0 0 1-.94-2.462 36.222 36.222 0 0 1 14.335 3.286c.063.144.12.291.185.433 1.639 3.549 1.647 7.792.024 11.35-1.464 3.208-2.237 6.831-2.237 10.478v5.014a1.5 1.5 0 0 0 3 0v-5.014c0-3.22.68-6.412 1.966-9.231 1.555-3.407 1.865-7.323.968-10.946a36.289 36.289 0 0 1 5.236 3.918 1.504 1.504 0 0 0 1.23.368 1.5 1.5 0 0 0 1.064-.718l19.953-33.601a1.504 1.504 0 0 0-.403-1.977zM74.86 63.977a39.16 39.16 0 0 0-7.43-4.794 21.807 21.807 0 0 1-1.366-7.61v-6.716l2.225 3.407a1.5 1.5 0 0 0 2.512-1.64l-4.98-7.627-.006-.007a1.503 1.503 0 0 0-.219-.258c-.023-.022-.048-.039-.072-.059a1.433 1.433 0 0 0-.201-.143l-.095-.052a1.497 1.497 0 0 0-.228-.089c-.031-.01-.061-.021-.093-.029a1.485 1.485 0 0 0-.343-.043c-.118 0-.232.017-.343.043-.032.008-.062.019-.093.029a1.497 1.497 0 0 0-.323.141c-.071.042-.137.09-.2.143-.024.02-.049.038-.072.06a1.503 1.503 0 0 0-.219.258l-.006.007-4.982 7.627a1.5 1.5 0 1 0 2.512 1.64l2.227-3.408v6.717c0 2.045.259 4.08.745 6.036a39.244 39.244 0 0 0-13.768-2.518 22.18 22.18 0 0 1-.282-3.518v-6.717l2.226 3.408a1.5 1.5 0 0 0 2.512-1.64l-4.981-7.627a1.501 1.501 0 0 0-2.512 0l-4.982 7.627a1.5 1.5 0 1 0 2.512 1.64l2.226-3.408v6.717c0 1.22.096 2.435.271 3.634a39.179 39.179 0 0 0-12.529 3.064 21.955 21.955 0 0 1-1.046-6.698v-6.716l2.225 3.407a1.5 1.5 0 0 0 2.512-1.64l-4.981-7.627-.005-.006a1.496 1.496 0 0 0-2.502 0l-.005.006-4.981 7.627a1.5 1.5 0 1 0 2.512 1.64l2.225-3.407v6.716c0 2.738.453 5.458 1.315 7.993a39.254 39.254 0 0 0-6.677 4.41L6.759 33.087c12.685-8.968 27.598-13.701 43.218-13.701 15.624 0 30.539 4.734 43.224 13.706L74.86 63.977z" fill="#1b552b"></path></svg> 