<?xml version="1.0" encoding="UTF-8"?> <svg xmlns="http://www.w3.org/2000/svg" viewBox="0 0 100 100" fill-rule="evenodd"><path d="M66.304 4.581A1.5 1.5 0 0 0 64 5.845l-.039 25.462a42.925 42.925 0 0 0-14.011-2.328c-4.79 0-9.473.775-13.95 2.308V7.105a1.5 1.5 0 0 0-2.299-1.269C15.494 17.309 6.643 32.542 6.643 52.408c0 24.003 19.428 43.531 43.307 43.531s43.307-19.528 43.307-43.531c.001-20.666-8.816-36.31-26.953-47.827zM49.95 92.939c-22.226 0-40.307-18.183-40.307-40.531C9.643 34.509 17.29 20.571 33 9.88v23.34c0 .188.035.373.104.547l.075.192a1.5 1.5 0 0 0 1.951.847 39.933 39.933 0 0 1 14.82-2.827c5.167 0 10.196.968 14.948 2.877a1.499 1.499 0 0 0 2.059-1.389l.038-24.834c15.646 10.764 23.262 25.111 23.261 43.775.001 22.349-18.08 40.531-40.306 40.531z" fill="#1b552b"></path><path d="M39.29 54.739a1.5 1.5 0 1 0 3 0c0-4.136-3.589-7.5-8-7.5s-8 3.365-8 7.5a1.5 1.5 0 1 0 3 0c0-2.481 2.243-4.5 5-4.5s5 2.019 5 4.5zm26.343-7.5c-4.411 0-8 3.365-8 7.5a1.5 1.5 0 0 0 3 0c0-2.481 2.243-4.5 5-4.5s5 2.019 5 4.5a1.5 1.5 0 0 0 3 0c0-4.135-3.589-7.5-8-7.5zm.149 23.692a1.5 1.5 0 0 0-1.5 1.5c0 3.584-2.916 6.5-6.5 6.5-3.474 0-6.312-2.742-6.484-6.175l5.449-8.174a1.502 1.502 0 0 0-1.248-2.332h-12a1.5 1.5 0 0 0-1.248 2.332l5.448 8.173c-.171 3.433-3.009 6.176-6.484 6.176a6.508 6.508 0 0 1-6.5-6.5 1.5 1.5 0 1 0-3 0c0 5.238 4.262 9.5 9.5 9.5 3.554 0 6.654-1.965 8.283-4.862 1.629 2.897 4.729 4.862 8.283 4.862 5.238 0 9.5-4.262 9.5-9.5a1.5 1.5 0 0 0-1.499-1.5zM52.697 65.25 49.5 70.046l-3.197-4.796h6.394z" fill="#1b552b"></path></svg> 