<?xml version="1.0" encoding="UTF-8"?> <svg xmlns="http://www.w3.org/2000/svg" viewBox="0 0 100 100" fill-rule="evenodd"><path d="M84.672 11.457a1.5 1.5 0 0 0-2.089-.251L65.363 24.5l-9.799-9.2a1.5 1.5 0 0 0-2.046-.007l-8.307 7.694c-2.759-4.431-7.348-7.688-12.901-8.541-10.086-1.548-19.565 5.401-21.116 15.495a18.68 18.68 0 0 0-.192 1.969l-8.164 7.65a1.5 1.5 0 0 0 .797 2.578l11 1.701c.018.003.036.002.054.004l.002.003A41.892 41.892 0 0 0 14 51.393c0 22.883 18.617 41.5 41.5 41.5 22.483 0 40.712-18.207 41.499-41.449.775-22.896-10.983-38.306-12.327-39.987zm-30.141 6.986 8.427 7.913-15.907 12.281c.331-.988.591-2.012.754-3.076a18.367 18.367 0 0 0-1.181-9.795l7.907-7.323zM14.204 30.401c1.174-7.642 7.782-13.128 15.287-13.128.778 0 1.566.059 2.358.181 8.435 1.295 14.243 9.211 12.948 17.645-1.295 8.435-9.21 14.241-17.645 12.948-8.435-1.296-14.243-9.212-12.948-17.646zm-7.066 9.242 4.105-3.847a18.432 18.432 0 0 0 1.451 4.706l-5.556-.859zm86.863 11.699C93.269 72.959 76.356 89.893 55.5 89.893c-21.229 0-38.5-17.271-38.5-38.5 0-1.586.107-3.17.299-4.738a18.388 18.388 0 0 0 9.39 4.401c.949.146 1.89.216 2.822.216 5.049 0 9.76-2.076 13.166-5.519a1.5 1.5 0 0 0 .289-.172L83.213 14.51c2.965 4.139 11.435 17.716 10.788 36.832z" fill="#1b552b"></path><path d="M24 29.25a2 2 0 1 0 0 4 2 2 0 1 0 0-4z" fill="#1b552b"></path></svg> 