<?xml version="1.0" encoding="UTF-8"?> <svg xmlns="http://www.w3.org/2000/svg" viewBox="0 0 100 100" fill-rule="evenodd"><path d="M95.49 46.09A47.63 47.63 0 0 0 70 32.67C64.06 24.68 56.61 24 48.84 24h-19.7a1.5 1.5 0 0 0-1.06 2.56l10.49 10.49a87.75 87.75 0 0 0-15.85 8.52l-6.62-6.2-5.17-4.83C8 31.79 8 31.79 7.15 32a1.5 1.5 0 0 0-1 1 22.93 22.93 0 0 0 2.57 18.54C7.24 54.12 3.4 62 6.08 70a1.5 1.5 0 0 0 2.44.63l14.17-13a82.14 82.14 0 0 0 22.52 11.54l-9.27 9.27A1.5 1.5 0 0 0 37 81h18.63a12.77 12.77 0 0 0 9.09-3.76l6.07-6.07s0-.07.07-.11c12.27-2.78 20.73-11.16 25.05-16.55a6.32 6.32 0 0 0-.42-8.42ZM41.57 35.81 32.76 27h16.08c6.54 0 12.06.43 16.75 5.14q-1.5-.1-3.07-.1a62.06 62.06 0 0 0-20.9 3.86s-.03-.07-.05-.09ZM8.36 66.68c-1.16-7.37 3.34-14.27 3.39-14.35a1.5 1.5 0 0 0 0-1.73 20.47 20.47 0 0 1-3.33-14.3c2.67 2.49 7.75 7.24 11.85 11.09a5.83 5.83 0 0 0-1.77 4.11 5.76 5.76 0 0 0 1.76 4.27Zm54.24 8.43a9.79 9.79 0 0 1-7 2.88h-15l7.88-7.88a55.61 55.61 0 0 0 14 1.87c1.14 0 2.26-.05 3.35-.15Zm31-22.48C88.67 58.74 78.11 69 62.52 69c-17.36 0-32.45-9.5-39.9-15.16a2.8 2.8 0 0 1-1.12-2.29 2.87 2.87 0 0 1 1.22-2.32C30.16 43.92 45.21 35 62.52 35 78 35 88.47 43.29 93.37 48.21a3.32 3.32 0 0 1 .2 4.42Z" fill="#1b552b"></path><path d="M75.19 41.31a1.5 1.5 0 0 0-2.12 0 14.76 14.76 0 0 0 0 20.87 1.5 1.5 0 1 0 2.12-2.12 11.76 11.76 0 0 1 0-16.63 1.5 1.5 0 0 0 0-2.12ZM82.5 48a2.5 2.5 0 1 0 0 5 2.5 2.5 0 1 0 0-5z" fill="#1b552b"></path></svg> 