<?xml version="1.0" encoding="UTF-8"?> <svg xmlns="http://www.w3.org/2000/svg" viewBox="0 0 100 100" fill-rule="evenodd"><path d="M93.25 60.69a10.23 10.23 0 0 0-13.68 0 7.19 7.19 0 0 1-9.65 0 9.87 9.87 0 0 0-4.92-2.5v-9.93a7 7 0 0 1 2.94 1.62 10.23 10.23 0 0 0 13.68 0 7.18 7.18 0 0 1 9.6 0L94 52.45a1.5 1.5 0 1 0 2-2.2l-2.77-2.56a10.23 10.23 0 0 0-13.68 0 7.19 7.19 0 0 1-9.65 0 9.87 9.87 0 0 0-4.9-2.5V33.85a7.5 7.5 0 0 0 0-14.7V6.5a1.5 1.5 0 0 0-3 0v12.65a7.5 7.5 0 0 0 0 14.7v11.22a9.94 9.94 0 0 0-5.75 2.56 7.18 7.18 0 0 1-9.6 0 10.23 10.23 0 0 0-13.68 0 7.73 7.73 0 0 1-10.33 0A10.22 10.22 0 0 0 9 47.64L6 50.4a1.5 1.5 0 1 0 2 2.2l3-2.76a7.18 7.18 0 0 1 9.6 0 10.77 10.77 0 0 0 14.41 0 7.18 7.18 0 0 1 9.6 0 10.23 10.23 0 0 0 13.68 0A6.92 6.92 0 0 1 62 48.08v10a9.94 9.94 0 0 0-5.75 2.56 7.18 7.18 0 0 1-9.6 0 10.23 10.23 0 0 0-13.68 0 7.73 7.73 0 0 1-10.33 0 10.22 10.22 0 0 0-13.64 0L6 63.4a1.5 1.5 0 1 0 2 2.2l3-2.76a7.18 7.18 0 0 1 9.6 0 10.77 10.77 0 0 0 14.41 0 7.18 7.18 0 0 1 9.6 0 10.23 10.23 0 0 0 13.68 0A6.92 6.92 0 0 1 62 61.08v21a11.87 11.87 0 0 1-4.55 9.37A12 12 0 0 1 38 81.85v-4.16l7.23 7.2a1.5 1.5 0 0 0 2.12-2.13L37.56 73A1.5 1.5 0 0 0 35 74.08v7.77a15.12 15.12 0 0 0 11.31 14.71A15.8 15.8 0 0 0 50 97a15 15 0 0 0 15-14.95V61.26a7 7 0 0 1 2.94 1.62 10.23 10.23 0 0 0 13.68 0 7.18 7.18 0 0 1 9.6 0L94 65.45a1.5 1.5 0 1 0 2-2.2ZM59 26.5a4.5 4.5 0 1 1 4.5 4.5 4.5 4.5 0 0 1-4.5-4.5Z" fill="#1b552b"></path></svg> 